<svg xmlns="http://www.w3.org/2000/svg" version="1.1" xmlns:xlink="http://www.w3.org/1999/xlink" xmlns:svgjs="http://svgjs.com/svgjs" width="1660" height="560" preserveAspectRatio="none" viewBox="0 0 1440 560">
    <g mask="url(&quot;#SvgjsMask1008&quot;)" fill="none">
        <path d="M-93.89 371.88L-93.89 371.88" stroke="rgba(203, 143, 55, 1)" stroke-width="1.5"></path>
        <path d="M-93.89 371.88L71.76 369.93" stroke="rgba(203, 143, 55, 1)" stroke-width="1.5"></path>
        <path d="M-93.89 371.88L-51.42 550.38" stroke="rgba(203, 143, 55, 1)" stroke-width="1.5"></path>
        <path d="M-93.89 371.88L41.68 530.82" stroke="rgba(203, 143, 55, 1)" stroke-width="1.5"></path>
        <path d="M-93.89 371.88L-72.96 669.39" stroke="rgba(203, 143, 55, 1)" stroke-width="1.5"></path>
        <path d="M-51.42 550.38L-51.42 550.38" stroke="rgba(203, 143, 55, 1)" stroke-width="1.5"></path>
        <path d="M-51.42 550.38L41.68 530.82" stroke="rgba(203, 143, 55, 1)" stroke-width="1.5"></path>
        <path d="M-51.42 550.38L-72.96 669.39" stroke="rgba(203, 143, 55, 1)" stroke-width="1.5"></path>
        <path d="M-51.42 550.38L69.19 650.1" stroke="rgba(203, 143, 55, 1)" stroke-width="1.5"></path>
        <path d="M-51.42 550.38L71.76 369.93" stroke="rgba(203, 143, 55, 1)" stroke-width="1.5"></path>
        <path d="M-51.42 550.38L210.78 703.28" stroke="rgba(203, 143, 55, 1)" stroke-width="1.5"></path>
        <path d="M-72.96 669.39L-72.96 669.39" stroke="rgba(203, 143, 55, 1)" stroke-width="1.5"></path>
        <path d="M-72.96 669.39L69.19 650.1" stroke="rgba(203, 143, 55, 1)" stroke-width="1.5"></path>
        <path d="M-72.96 669.39L41.68 530.82" stroke="rgba(203, 143, 55, 1)" stroke-width="1.5"></path>
        <path d="M-72.96 669.39L210.78 703.28" stroke="rgba(203, 143, 55, 1)" stroke-width="1.5"></path>
        <path d="M-72.96 669.39L71.76 369.93" stroke="rgba(203, 143, 55, 1)" stroke-width="1.5"></path>
        <path d="M71.76 369.93L71.76 369.93" stroke="rgba(203, 143, 55, 1)" stroke-width="1.5"></path>
        <path d="M71.76 369.93L215.86 357.63" stroke="rgba(203, 143, 55, 1)" stroke-width="1.5"></path>
        <path d="M71.76 369.93L41.68 530.82" stroke="rgba(203, 143, 55, 1)" stroke-width="1.5"></path>
        <path d="M41.68 530.82L41.68 530.82" stroke="rgba(203, 143, 55, 1)" stroke-width="1.5"></path>
        <path d="M41.68 530.82L69.19 650.1" stroke="rgba(203, 143, 55, 1)" stroke-width="1.5"></path>
        <path d="M69.19 650.1L69.19 650.1" stroke="rgba(203, 143, 55, 1)" stroke-width="1.5"></path>
        <path d="M69.19 650.1L210.78 703.28" stroke="rgba(203, 143, 55, 1)" stroke-width="1.5"></path>
        <path d="M69.19 650.1L71.76 369.93" stroke="rgba(203, 143, 55, 1)" stroke-width="1.5"></path>
        <path d="M215.86 357.63L215.86 357.63" stroke="rgba(203, 143, 55, 1)" stroke-width="1.5"></path>
        <path d="M215.86 357.63L377.44 344.75" stroke="rgba(203, 143, 55, 1)" stroke-width="1.5"></path>
        <path d="M215.86 357.63L342.25 542.61" stroke="rgba(203, 143, 55, 1)" stroke-width="1.5"></path>
        <path d="M215.86 357.63L41.68 530.82" stroke="rgba(203, 143, 55, 1)" stroke-width="1.5"></path>
        <path d="M215.86 357.63L-93.89 371.88" stroke="rgba(203, 143, 55, 1)" stroke-width="1.5"></path>
        <path d="M215.86 357.63L69.19 650.1" stroke="rgba(203, 143, 55, 1)" stroke-width="1.5"></path>
        <path d="M210.78 703.28L210.78 703.28" stroke="rgba(203, 143, 55, 1)" stroke-width="1.5"></path>
        <path d="M210.78 703.28L408.65 641.47" stroke="rgba(203, 143, 55, 1)" stroke-width="1.5"></path>
        <path d="M210.78 703.28L342.25 542.61" stroke="rgba(203, 143, 55, 1)" stroke-width="1.5"></path>
        <path d="M210.78 703.28L41.68 530.82" stroke="rgba(203, 143, 55, 1)" stroke-width="1.5"></path>
        <path d="M377.44 344.75L377.44 344.75" stroke="rgba(203, 143, 55, 1)" stroke-width="1.5"></path>
        <path d="M377.44 344.75L551.93 382.17" stroke="rgba(203, 143, 55, 1)" stroke-width="1.5"></path>
        <path d="M377.44 344.75L342.25 542.61" stroke="rgba(203, 143, 55, 1)" stroke-width="1.5"></path>
        <path d="M377.44 344.75L552.62 504.17" stroke="rgba(203, 143, 55, 1)" stroke-width="1.5"></path>
        <path d="M377.44 344.75L672.38 375.31" stroke="rgba(203, 143, 55, 1)" stroke-width="1.5"></path>
        <path d="M342.25 542.61L342.25 542.61" stroke="rgba(203, 143, 55, 1)" stroke-width="1.5"></path>
        <path d="M342.25 542.61L408.65 641.47" stroke="rgba(203, 143, 55, 1)" stroke-width="1.5"></path>
        <path d="M342.25 542.61L552.62 504.17" stroke="rgba(203, 143, 55, 1)" stroke-width="1.5"></path>
        <path d="M408.65 641.47L408.65 641.47" stroke="rgba(203, 143, 55, 1)" stroke-width="1.5"></path>
        <path d="M408.65 641.47L514.15 692.22" stroke="rgba(203, 143, 55, 1)" stroke-width="1.5"></path>
        <path d="M408.65 641.47L552.62 504.17" stroke="rgba(203, 143, 55, 1)" stroke-width="1.5"></path>
        <path d="M551.93 382.17L551.93 382.17" stroke="rgba(203, 143, 55, 1)" stroke-width="1.5"></path>
        <path d="M551.93 382.17L672.38 375.31" stroke="rgba(203, 143, 55, 1)" stroke-width="1.5"></path>
        <path d="M551.93 382.17L552.62 504.17" stroke="rgba(203, 143, 55, 1)" stroke-width="1.5"></path>
        <path d="M552.62 504.17L552.62 504.17" stroke="rgba(203, 143, 55, 1)" stroke-width="1.5"></path>
        <path d="M552.62 504.17L656.69 551.13" stroke="rgba(203, 143, 55, 1)" stroke-width="1.5"></path>
        <path d="M514.15 692.22L514.15 692.22" stroke="rgba(203, 143, 55, 1)" stroke-width="1.5"></path>
        <path d="M514.15 692.22L638.37 641.3" stroke="rgba(203, 143, 55, 1)" stroke-width="1.5"></path>
        <path d="M514.15 692.22L552.62 504.17" stroke="rgba(203, 143, 55, 1)" stroke-width="1.5"></path>
        <path d="M514.15 692.22L656.69 551.13" stroke="rgba(203, 143, 55, 1)" stroke-width="1.5"></path>
        <path d="M514.15 692.22L342.25 542.61" stroke="rgba(203, 143, 55, 1)" stroke-width="1.5"></path>
        <path d="M672.38 375.31L672.38 375.31" stroke="rgba(203, 143, 55, 1)" stroke-width="1.5"></path>
        <path d="M672.38 375.31L838.41 365" stroke="rgba(203, 143, 55, 1)" stroke-width="1.5"></path>
        <path d="M656.69 551.13L656.69 551.13" stroke="rgba(203, 143, 55, 1)" stroke-width="1.5"></path>
        <path d="M656.69 551.13L638.37 641.3" stroke="rgba(203, 143, 55, 1)" stroke-width="1.5"></path>
        <path d="M656.69 551.13L810.2 493.94" stroke="rgba(203, 143, 55, 1)" stroke-width="1.5"></path>
        <path d="M656.69 551.13L672.38 375.31" stroke="rgba(203, 143, 55, 1)" stroke-width="1.5"></path>
        <path d="M656.69 551.13L551.93 382.17" stroke="rgba(203, 143, 55, 1)" stroke-width="1.5"></path>
        <path d="M638.37 641.3L638.37 641.3" stroke="rgba(203, 143, 55, 1)" stroke-width="1.5"></path>
        <path d="M638.37 641.3L552.62 504.17" stroke="rgba(203, 143, 55, 1)" stroke-width="1.5"></path>
        <path d="M638.37 641.3L834.45 642.66" stroke="rgba(203, 143, 55, 1)" stroke-width="1.5"></path>
        <path d="M810.21 200.29L810.21 200.29" stroke="rgba(203, 143, 55, 1)" stroke-width="1.5"></path>
        <path d="M810.21 200.29L838.41 365" stroke="rgba(203, 143, 55, 1)" stroke-width="1.5"></path>
        <path d="M810.21 200.29L939.66 342.23" stroke="rgba(203, 143, 55, 1)" stroke-width="1.5"></path>
        <path d="M810.21 200.29L672.38 375.31" stroke="rgba(203, 143, 55, 1)" stroke-width="1.5"></path>
        <path d="M810.21 200.29L810.2 493.94" stroke="rgba(203, 143, 55, 1)" stroke-width="1.5"></path>
        <path d="M810.21 200.29L1109.2 247.02" stroke="rgba(203, 143, 55, 1)" stroke-width="1.5"></path>
        <path d="M810.21 200.29L994.34 -39.97" stroke="rgba(203, 143, 55, 1)" stroke-width="1.5"></path>
        <path d="M838.41 365L838.41 365" stroke="rgba(203, 143, 55, 1)" stroke-width="1.5"></path>
        <path d="M838.41 365L939.66 342.23" stroke="rgba(203, 143, 55, 1)" stroke-width="1.5"></path>
        <path d="M838.41 365L810.2 493.94" stroke="rgba(203, 143, 55, 1)" stroke-width="1.5"></path>
        <path d="M838.41 365L943.15 547.87" stroke="rgba(203, 143, 55, 1)" stroke-width="1.5"></path>
        <path d="M838.41 365L656.69 551.13" stroke="rgba(203, 143, 55, 1)" stroke-width="1.5"></path>
        <path d="M810.2 493.94L810.2 493.94" stroke="rgba(203, 143, 55, 1)" stroke-width="1.5"></path>
        <path d="M810.2 493.94L943.15 547.87" stroke="rgba(203, 143, 55, 1)" stroke-width="1.5"></path>
        <path d="M810.2 493.94L834.45 642.66" stroke="rgba(203, 143, 55, 1)" stroke-width="1.5"></path>
        <path d="M834.45 642.66L834.45 642.66" stroke="rgba(203, 143, 55, 1)" stroke-width="1.5"></path>
        <path d="M834.45 642.66L943.15 547.87" stroke="rgba(203, 143, 55, 1)" stroke-width="1.5"></path>
        <path d="M834.45 642.66L999.92 687.41" stroke="rgba(203, 143, 55, 1)" stroke-width="1.5"></path>
        <path d="M834.45 642.66L656.69 551.13" stroke="rgba(203, 143, 55, 1)" stroke-width="1.5"></path>
        <path d="M994.34 -39.97L994.34 -39.97" stroke="rgba(203, 143, 55, 1)" stroke-width="1.5"></path>
        <path d="M994.34 -39.97L1130.56 -111.95" stroke="rgba(203, 143, 55, 1)" stroke-width="1.5"></path>
        <path d="M994.34 -39.97L1154.87 61.27" stroke="rgba(203, 143, 55, 1)" stroke-width="1.5"></path>
        <path d="M994.34 -39.97L1268.44 -41.28" stroke="rgba(203, 143, 55, 1)" stroke-width="1.5"></path>
        <path d="M939.66 342.23L939.66 342.23" stroke="rgba(203, 143, 55, 1)" stroke-width="1.5"></path>
        <path d="M943.15 547.87L943.15 547.87" stroke="rgba(203, 143, 55, 1)" stroke-width="1.5"></path>
        <path d="M943.15 547.87L999.92 687.41" stroke="rgba(203, 143, 55, 1)" stroke-width="1.5"></path>
        <path d="M943.15 547.87L1144 558.74" stroke="rgba(203, 143, 55, 1)" stroke-width="1.5"></path>
        <path d="M943.15 547.87L939.66 342.23" stroke="rgba(203, 143, 55, 1)" stroke-width="1.5"></path>
        <path d="M999.92 687.41L999.92 687.41" stroke="rgba(203, 143, 55, 1)" stroke-width="1.5"></path>
        <path d="M999.92 687.41L1089.17 701.75" stroke="rgba(203, 143, 55, 1)" stroke-width="1.5"></path>
        <path d="M1130.56 -111.95L1130.56 -111.95" stroke="rgba(203, 143, 55, 1)" stroke-width="1.5"></path>
        <path d="M1130.56 -111.95L1268.44 -41.28" stroke="rgba(203, 143, 55, 1)" stroke-width="1.5"></path>
        <path d="M1130.56 -111.95L1154.87 61.27" stroke="rgba(203, 143, 55, 1)" stroke-width="1.5"></path>
        <path d="M1154.87 61.27L1154.87 61.27" stroke="rgba(203, 143, 55, 1)" stroke-width="1.5"></path>
        <path d="M1154.87 61.27L1292.93 66.9" stroke="rgba(203, 143, 55, 1)" stroke-width="1.5"></path>
        <path d="M1154.87 61.27L1268.44 -41.28" stroke="rgba(203, 143, 55, 1)" stroke-width="1.5"></path>
        <path d="M1154.87 61.27L1264.21 201.31" stroke="rgba(203, 143, 55, 1)" stroke-width="1.5"></path>
        <path d="M1109.2 247.02L1109.2 247.02" stroke="rgba(203, 143, 55, 1)" stroke-width="1.5"></path>
        <path d="M1109.2 247.02L1141.59 338.4" stroke="rgba(203, 143, 55, 1)" stroke-width="1.5"></path>
        <path d="M1109.2 247.02L1264.21 201.31" stroke="rgba(203, 143, 55, 1)" stroke-width="1.5"></path>
        <path d="M1109.2 247.02L1154.87 61.27" stroke="rgba(203, 143, 55, 1)" stroke-width="1.5"></path>
        <path d="M1141.59 338.4L1141.59 338.4" stroke="rgba(203, 143, 55, 1)" stroke-width="1.5"></path>
        <path d="M1141.59 338.4L1280.7 405.09" stroke="rgba(203, 143, 55, 1)" stroke-width="1.5"></path>
        <path d="M1144 558.74L1144 558.74" stroke="rgba(203, 143, 55, 1)" stroke-width="1.5"></path>
        <path d="M1144 558.74L1267.13 497.24" stroke="rgba(203, 143, 55, 1)" stroke-width="1.5"></path>
        <path d="M1144 558.74L1089.17 701.75" stroke="rgba(203, 143, 55, 1)" stroke-width="1.5"></path>
        <path d="M1144 558.74L999.92 687.41" stroke="rgba(203, 143, 55, 1)" stroke-width="1.5"></path>
        <path d="M1089.17 701.75L1089.17 701.75" stroke="rgba(203, 143, 55, 1)" stroke-width="1.5"></path>
        <path d="M1089.17 701.75L943.15 547.87" stroke="rgba(203, 143, 55, 1)" stroke-width="1.5"></path>
        <path d="M1089.17 701.75L1306.37 683.44" stroke="rgba(203, 143, 55, 1)" stroke-width="1.5"></path>
        <path d="M1268.44 -41.28L1268.44 -41.28" stroke="rgba(203, 143, 55, 1)" stroke-width="1.5"></path>
        <path d="M1268.44 -41.28L1292.93 66.9" stroke="rgba(203, 143, 55, 1)" stroke-width="1.5"></path>
        <path d="M1268.44 -41.28L1397.23 -101.66" stroke="rgba(203, 143, 55, 1)" stroke-width="1.5"></path>
        <path d="M1268.44 -41.28L1445.98 94.68" stroke="rgba(203, 143, 55, 1)" stroke-width="1.5"></path>
        <path d="M1292.93 66.9L1292.93 66.9" stroke="rgba(203, 143, 55, 1)" stroke-width="1.5"></path>
        <path d="M1292.93 66.9L1264.21 201.31" stroke="rgba(203, 143, 55, 1)" stroke-width="1.5"></path>
        <path d="M1292.93 66.9L1445.98 94.68" stroke="rgba(203, 143, 55, 1)" stroke-width="1.5"></path>
        <path d="M1264.21 201.31L1264.21 201.31" stroke="rgba(203, 143, 55, 1)" stroke-width="1.5"></path>
        <path d="M1280.7 405.09L1280.7 405.09" stroke="rgba(203, 143, 55, 1)" stroke-width="1.5"></path>
        <path d="M1280.7 405.09L1267.13 497.24" stroke="rgba(203, 143, 55, 1)" stroke-width="1.5"></path>
        <path d="M1267.13 497.24L1267.13 497.24" stroke="rgba(203, 143, 55, 1)" stroke-width="1.5"></path>
        <path d="M1267.13 497.24L1306.37 683.44" stroke="rgba(203, 143, 55, 1)" stroke-width="1.5"></path>
        <path d="M1306.37 683.44L1306.37 683.44" stroke="rgba(203, 143, 55, 1)" stroke-width="1.5"></path>
        <path d="M1306.37 683.44L1415.04 654.98" stroke="rgba(203, 143, 55, 1)" stroke-width="1.5"></path>
        <path d="M1306.37 683.44L1144 558.74" stroke="rgba(203, 143, 55, 1)" stroke-width="1.5"></path>
        <path d="M1397.23 -101.66L1397.23 -101.66" stroke="rgba(203, 143, 55, 1)" stroke-width="1.5"></path>
        <path d="M1397.23 -101.66L1564.99 -98.99" stroke="rgba(203, 143, 55, 1)" stroke-width="1.5"></path>
        <path d="M1397.23 -101.66L1292.93 66.9" stroke="rgba(203, 143, 55, 1)" stroke-width="1.5"></path>
        <path d="M1397.23 -101.66L1445.98 94.68" stroke="rgba(203, 143, 55, 1)" stroke-width="1.5"></path>
        <path d="M1445.98 94.68L1445.98 94.68" stroke="rgba(203, 143, 55, 1)" stroke-width="1.5"></path>
        <path d="M1445.98 94.68L1570.59 101.13" stroke="rgba(203, 143, 55, 1)" stroke-width="1.5"></path>
        <path d="M1445.98 94.68L1453.01 249.61" stroke="rgba(203, 143, 55, 1)" stroke-width="1.5"></path>
        <path d="M1453.01 249.61L1453.01 249.61" stroke="rgba(203, 143, 55, 1)" stroke-width="1.5"></path>
        <path d="M1453.01 249.61L1459.41 388.46" stroke="rgba(203, 143, 55, 1)" stroke-width="1.5"></path>
        <path d="M1453.01 249.61L1570.59 101.13" stroke="rgba(203, 143, 55, 1)" stroke-width="1.5"></path>
        <path d="M1459.41 388.46L1459.41 388.46" stroke="rgba(203, 143, 55, 1)" stroke-width="1.5"></path>
        <path d="M1459.41 388.46L1457.55 495.4" stroke="rgba(203, 143, 55, 1)" stroke-width="1.5"></path>
        <path d="M1459.41 388.46L1592.9 502.28" stroke="rgba(203, 143, 55, 1)" stroke-width="1.5"></path>
        <path d="M1459.41 388.46L1280.7 405.09" stroke="rgba(203, 143, 55, 1)" stroke-width="1.5"></path>
        <path d="M1459.41 388.46L1267.13 497.24" stroke="rgba(203, 143, 55, 1)" stroke-width="1.5"></path>
        <path d="M1457.55 495.4L1457.55 495.4" stroke="rgba(203, 143, 55, 1)" stroke-width="1.5"></path>
        <path d="M1457.55 495.4L1592.9 502.28" stroke="rgba(203, 143, 55, 1)" stroke-width="1.5"></path>
        <path d="M1457.55 495.4L1415.04 654.98" stroke="rgba(203, 143, 55, 1)" stroke-width="1.5"></path>
        <path d="M1415.04 654.98L1415.04 654.98" stroke="rgba(203, 143, 55, 1)" stroke-width="1.5"></path>
        <path d="M1415.04 654.98L1566.37 658.74" stroke="rgba(203, 143, 55, 1)" stroke-width="1.5"></path>
        <path d="M1415.04 654.98L1267.13 497.24" stroke="rgba(203, 143, 55, 1)" stroke-width="1.5"></path>
        <path d="M1564.99 -98.99L1564.99 -98.99" stroke="rgba(203, 143, 55, 1)" stroke-width="1.5"></path>
        <path d="M1564.99 -98.99L1570.59 101.13" stroke="rgba(203, 143, 55, 1)" stroke-width="1.5"></path>
        <path d="M1564.99 -98.99L1445.98 94.68" stroke="rgba(203, 143, 55, 1)" stroke-width="1.5"></path>
        <path d="M1564.99 -98.99L1268.44 -41.28" stroke="rgba(203, 143, 55, 1)" stroke-width="1.5"></path>
        <path d="M1564.99 -98.99L1292.93 66.9" stroke="rgba(203, 143, 55, 1)" stroke-width="1.5"></path>
        <path d="M1564.99 -98.99L1453.01 249.61" stroke="rgba(203, 143, 55, 1)" stroke-width="1.5"></path>
        <path d="M1570.59 101.13L1570.59 101.13" stroke="rgba(203, 143, 55, 1)" stroke-width="1.5"></path>
        <path d="M1592.9 502.28L1592.9 502.28" stroke="rgba(203, 143, 55, 1)" stroke-width="1.5"></path>
        <path d="M1592.9 502.28L1566.37 658.74" stroke="rgba(203, 143, 55, 1)" stroke-width="1.5"></path>
        <path d="M1592.9 502.28L1415.04 654.98" stroke="rgba(203, 143, 55, 1)" stroke-width="1.5"></path>
        <path d="M1566.37 658.74L1566.37 658.74" stroke="rgba(203, 143, 55, 1)" stroke-width="1.5"></path>
        <circle r="5" cx="-93.89" cy="371.88" fill="rgba(203, 143, 55, 1)"></circle>
        <circle r="5" cx="-51.42" cy="550.38" fill="rgba(203, 143, 55, 1)"></circle>
        <circle r="5" cx="-72.96" cy="669.39" fill="rgba(203, 143, 55, 1)"></circle>
        <circle r="5" cx="71.76" cy="369.93" fill="rgba(203, 143, 55, 1)"></circle>
        <circle r="5" cx="41.68" cy="530.82" fill="rgba(203, 143, 55, 1)"></circle>
        <circle r="5" cx="69.19" cy="650.1" fill="rgba(203, 143, 55, 1)"></circle>
        <circle r="5" cx="215.86" cy="357.63" fill="rgba(203, 143, 55, 1)"></circle>
        <circle r="5" cx="210.78" cy="703.28" fill="rgba(203, 143, 55, 1)"></circle>
        <circle r="5" cx="377.44" cy="344.75" fill="rgba(203, 143, 55, 1)"></circle>
        <circle r="5" cx="342.25" cy="542.61" fill="rgba(203, 143, 55, 1)"></circle>
        <circle r="5" cx="408.65" cy="641.47" fill="rgba(203, 143, 55, 1)"></circle>
        <circle r="5" cx="551.93" cy="382.17" fill="rgba(203, 143, 55, 1)"></circle>
        <circle r="5" cx="552.62" cy="504.17" fill="rgba(203, 143, 55, 1)"></circle>
        <circle r="5" cx="514.15" cy="692.22" fill="rgba(203, 143, 55, 1)"></circle>
        <circle r="5" cx="672.38" cy="375.31" fill="rgba(203, 143, 55, 1)"></circle>
        <circle r="5" cx="656.69" cy="551.13" fill="rgba(203, 143, 55, 1)"></circle>
        <circle r="5" cx="638.37" cy="641.3" fill="rgba(203, 143, 55, 1)"></circle>
        <circle r="5" cx="810.21" cy="200.29" fill="rgba(203, 143, 55, 1)"></circle>
        <circle r="5" cx="838.41" cy="365" fill="rgba(203, 143, 55, 1)"></circle>
        <circle r="5" cx="810.2" cy="493.94" fill="rgba(203, 143, 55, 1)"></circle>
        <circle r="5" cx="834.45" cy="642.66" fill="rgba(203, 143, 55, 1)"></circle>
        <circle r="5" cx="994.34" cy="-39.97" fill="rgba(203, 143, 55, 1)"></circle>
        <circle r="5" cx="939.66" cy="342.23" fill="rgba(203, 143, 55, 1)"></circle>
        <circle r="5" cx="943.15" cy="547.87" fill="rgba(203, 143, 55, 1)"></circle>
        <circle r="5" cx="999.92" cy="687.41" fill="rgba(203, 143, 55, 1)"></circle>
        <circle r="5" cx="1130.56" cy="-111.95" fill="rgba(203, 143, 55, 1)"></circle>
        <circle r="5" cx="1154.87" cy="61.27" fill="rgba(203, 143, 55, 1)"></circle>
        <circle r="5" cx="1109.2" cy="247.02" fill="rgba(203, 143, 55, 1)"></circle>
        <circle r="5" cx="1141.59" cy="338.4" fill="rgba(203, 143, 55, 1)"></circle>
        <circle r="5" cx="1144" cy="558.74" fill="rgba(203, 143, 55, 1)"></circle>
        <circle r="5" cx="1089.17" cy="701.75" fill="rgba(203, 143, 55, 1)"></circle>
        <circle r="5" cx="1268.44" cy="-41.28" fill="rgba(203, 143, 55, 1)"></circle>
        <circle r="5" cx="1292.93" cy="66.9" fill="rgba(203, 143, 55, 1)"></circle>
        <circle r="5" cx="1264.21" cy="201.31" fill="rgba(203, 143, 55, 1)"></circle>
        <circle r="5" cx="1280.7" cy="405.09" fill="rgba(203, 143, 55, 1)"></circle>
        <circle r="5" cx="1267.13" cy="497.24" fill="rgba(203, 143, 55, 1)"></circle>
        <circle r="5" cx="1306.37" cy="683.44" fill="rgba(203, 143, 55, 1)"></circle>
        <circle r="5" cx="1397.23" cy="-101.66" fill="rgba(203, 143, 55, 1)"></circle>
        <circle r="5" cx="1445.98" cy="94.68" fill="rgba(203, 143, 55, 1)"></circle>
        <circle r="5" cx="1453.01" cy="249.61" fill="rgba(203, 143, 55, 1)"></circle>
        <circle r="5" cx="1459.41" cy="388.46" fill="rgba(203, 143, 55, 1)"></circle>
        <circle r="5" cx="1457.55" cy="495.4" fill="rgba(203, 143, 55, 1)"></circle>
        <circle r="5" cx="1415.04" cy="654.98" fill="rgba(203, 143, 55, 1)"></circle>
        <circle r="5" cx="1564.99" cy="-98.99" fill="rgba(203, 143, 55, 1)"></circle>
        <circle r="5" cx="1570.59" cy="101.13" fill="rgba(203, 143, 55, 1)"></circle>
        <circle r="5" cx="1592.9" cy="502.28" fill="rgba(203, 143, 55, 1)"></circle>
        <circle r="5" cx="1566.37" cy="658.74" fill="rgba(203, 143, 55, 1)"></circle>
        <path d="M-45.98 695.02L-45.98 695.02" stroke="hsl(35.69999999999999, 100%, 84.6%)" stroke-width="1.5"></path>
        <path d="M-45.98 695.02L73.44 693.08" stroke="hsl(35.69999999999999, 100%, 84.6%)" stroke-width="1.5"></path>
        <path d="M-45.98 695.02L-63.67 562.35" stroke="hsl(35.69999999999999, 100%, 84.6%)" stroke-width="1.5"></path>
        <path d="M255.19 519.98L255.19 519.98" stroke="hsl(35.69999999999999, 100%, 84.6%)" stroke-width="1.5"></path>
        <path d="M255.19 519.98L346.3 539.09" stroke="hsl(35.69999999999999, 100%, 84.6%)" stroke-width="1.5"></path>
        <path d="M255.19 519.98L224.83 676.54" stroke="hsl(35.69999999999999, 100%, 84.6%)" stroke-width="1.5"></path>
        <path d="M255.19 519.98L65.35 493.09" stroke="hsl(35.69999999999999, 100%, 84.6%)" stroke-width="1.5"></path>
        <path d="M224.83 676.54L224.83 676.54" stroke="hsl(35.69999999999999, 100%, 84.6%)" stroke-width="1.5"></path>
        <path d="M224.83 676.54L73.44 693.08" stroke="hsl(35.69999999999999, 100%, 84.6%)" stroke-width="1.5"></path>
        <path d="M224.83 676.54L398.37 656.06" stroke="hsl(35.69999999999999, 100%, 84.6%)" stroke-width="1.5"></path>
        <path d="M224.83 676.54L346.3 539.09" stroke="hsl(35.69999999999999, 100%, 84.6%)" stroke-width="1.5"></path>
        <path d="M224.83 676.54L65.35 493.09" stroke="hsl(35.69999999999999, 100%, 84.6%)" stroke-width="1.5"></path>
        <path d="M398.37 656.06L398.37 656.06" stroke="hsl(35.69999999999999, 100%, 84.6%)" stroke-width="1.5"></path>
        <path d="M398.37 656.06L346.3 539.09" stroke="hsl(35.69999999999999, 100%, 84.6%)" stroke-width="1.5"></path>
        <path d="M398.37 656.06L541.43 707.73" stroke="hsl(35.69999999999999, 100%, 84.6%)" stroke-width="1.5"></path>
        <path d="M541.43 707.73L541.43 707.73" stroke="hsl(35.69999999999999, 100%, 84.6%)" stroke-width="1.5"></path>
        <path d="M805.04 680.99L805.04 680.99" stroke="hsl(35.69999999999999, 100%, 84.6%)" stroke-width="1.5"></path>
        <path d="M805.04 680.99L843.57 493.17" stroke="hsl(35.69999999999999, 100%, 84.6%)" stroke-width="1.5"></path>
        <path d="M805.04 680.99L997.82 671.92" stroke="hsl(35.69999999999999, 100%, 84.6%)" stroke-width="1.5"></path>
        <path d="M805.04 680.99L693.24 503.29" stroke="hsl(35.69999999999999, 100%, 84.6%)" stroke-width="1.5"></path>
        <path d="M805.04 680.99L997.38 503.24" stroke="hsl(35.69999999999999, 100%, 84.6%)" stroke-width="1.5"></path>
        <path d="M805.04 680.99L541.43 707.73" stroke="hsl(35.69999999999999, 100%, 84.6%)" stroke-width="1.5"></path>
        <path d="M987.82 381.66L987.82 381.66" stroke="hsl(35.69999999999999, 100%, 84.6%)" stroke-width="1.5"></path>
        <path d="M987.82 381.66L1092.61 380.57" stroke="hsl(35.69999999999999, 100%, 84.6%)" stroke-width="1.5"></path>
        <path d="M987.82 381.66L997.38 503.24" stroke="hsl(35.69999999999999, 100%, 84.6%)" stroke-width="1.5"></path>
        <path d="M987.82 381.66L1088.71 514.41" stroke="hsl(35.69999999999999, 100%, 84.6%)" stroke-width="1.5"></path>
        <path d="M987.82 381.66L843.57 493.17" stroke="hsl(35.69999999999999, 100%, 84.6%)" stroke-width="1.5"></path>
        <path d="M987.82 381.66L800.34 353.2" stroke="hsl(35.69999999999999, 100%, 84.6%)" stroke-width="1.5"></path>
        <path d="M997.38 503.24L997.38 503.24" stroke="hsl(35.69999999999999, 100%, 84.6%)" stroke-width="1.5"></path>
        <path d="M997.38 503.24L1088.71 514.41" stroke="hsl(35.69999999999999, 100%, 84.6%)" stroke-width="1.5"></path>
        <path d="M997.38 503.24L843.57 493.17" stroke="hsl(35.69999999999999, 100%, 84.6%)" stroke-width="1.5"></path>
        <path d="M997.38 503.24L1092.61 380.57" stroke="hsl(35.69999999999999, 100%, 84.6%)" stroke-width="1.5"></path>
        <path d="M1118.55 232.1L1118.55 232.1" stroke="hsl(35.69999999999999, 100%, 84.6%)" stroke-width="1.5"></path>
        <path d="M1118.55 232.1L1092.61 380.57" stroke="hsl(35.69999999999999, 100%, 84.6%)" stroke-width="1.5"></path>
        <path d="M1118.55 232.1L1296.32 256.22" stroke="hsl(35.69999999999999, 100%, 84.6%)" stroke-width="1.5"></path>
        <path d="M1118.55 232.1L1244.21 83.16" stroke="hsl(35.69999999999999, 100%, 84.6%)" stroke-width="1.5"></path>
        <path d="M1289.9 -52.17L1289.9 -52.17" stroke="hsl(35.69999999999999, 100%, 84.6%)" stroke-width="1.5"></path>
        <path d="M1289.9 -52.17L1244.21 83.16" stroke="hsl(35.69999999999999, 100%, 84.6%)" stroke-width="1.5"></path>
        <path d="M1289.9 -52.17L1450.81 -38.43" stroke="hsl(35.69999999999999, 100%, 84.6%)" stroke-width="1.5"></path>
        <path d="M1289.9 -52.17L1434.09 84.11" stroke="hsl(35.69999999999999, 100%, 84.6%)" stroke-width="1.5"></path>
        <path d="M1289.9 -52.17L1414.72 194.42" stroke="hsl(35.69999999999999, 100%, 84.6%)" stroke-width="1.5"></path>
        <path d="M1289.9 -52.17L1587.57 -86.11" stroke="hsl(35.69999999999999, 100%, 84.6%)" stroke-width="1.5"></path>
        <path d="M1427.69 377.33L1427.69 377.33" stroke="hsl(35.69999999999999, 100%, 84.6%)" stroke-width="1.5"></path>
        <path d="M1427.69 377.33L1298.66 342.26" stroke="hsl(35.69999999999999, 100%, 84.6%)" stroke-width="1.5"></path>
        <path d="M1427.69 377.33L1574.68 373.07" stroke="hsl(35.69999999999999, 100%, 84.6%)" stroke-width="1.5"></path>
        <path d="M1427.69 377.33L1425.52 533.43" stroke="hsl(35.69999999999999, 100%, 84.6%)" stroke-width="1.5"></path>
        <path d="M1427.69 377.33L1296.32 256.22" stroke="hsl(35.69999999999999, 100%, 84.6%)" stroke-width="1.5"></path>
        <path d="M1427.69 377.33L1414.72 194.42" stroke="hsl(35.69999999999999, 100%, 84.6%)" stroke-width="1.5"></path>
        <path d="M-63.67 562.35L-63.67 562.35" stroke="hsl(35.69999999999999, 100%, 84.6%)" stroke-width="1.5"></path>
        <path d="M-63.67 562.35L65.35 493.09" stroke="hsl(35.69999999999999, 100%, 84.6%)" stroke-width="1.5"></path>
        <path d="M-63.67 562.35L73.44 693.08" stroke="hsl(35.69999999999999, 100%, 84.6%)" stroke-width="1.5"></path>
        <path d="M65.35 493.09L65.35 493.09" stroke="hsl(35.69999999999999, 100%, 84.6%)" stroke-width="1.5"></path>
        <path d="M73.44 693.08L73.44 693.08" stroke="hsl(35.69999999999999, 100%, 84.6%)" stroke-width="1.5"></path>
        <path d="M73.44 693.08L65.35 493.09" stroke="hsl(35.69999999999999, 100%, 84.6%)" stroke-width="1.5"></path>
        <path d="M346.3 539.09L346.3 539.09" stroke="hsl(35.69999999999999, 100%, 84.6%)" stroke-width="1.5"></path>
        <path d="M346.3 539.09L521.27 517.99" stroke="hsl(35.69999999999999, 100%, 84.6%)" stroke-width="1.5"></path>
        <path d="M521.27 517.99L521.27 517.99" stroke="hsl(35.69999999999999, 100%, 84.6%)" stroke-width="1.5"></path>
        <path d="M521.27 517.99L693.24 503.29" stroke="hsl(35.69999999999999, 100%, 84.6%)" stroke-width="1.5"></path>
        <path d="M521.27 517.99L398.37 656.06" stroke="hsl(35.69999999999999, 100%, 84.6%)" stroke-width="1.5"></path>
        <path d="M521.27 517.99L541.43 707.73" stroke="hsl(35.69999999999999, 100%, 84.6%)" stroke-width="1.5"></path>
        <path d="M521.27 517.99L255.19 519.98" stroke="hsl(35.69999999999999, 100%, 84.6%)" stroke-width="1.5"></path>
        <path d="M521.27 517.99L843.57 493.17" stroke="hsl(35.69999999999999, 100%, 84.6%)" stroke-width="1.5"></path>
        <path d="M693.24 503.29L693.24 503.29" stroke="hsl(35.69999999999999, 100%, 84.6%)" stroke-width="1.5"></path>
        <path d="M693.24 503.29L843.57 493.17" stroke="hsl(35.69999999999999, 100%, 84.6%)" stroke-width="1.5"></path>
        <path d="M800.34 353.2L800.34 353.2" stroke="hsl(35.69999999999999, 100%, 84.6%)" stroke-width="1.5"></path>
        <path d="M800.34 353.2L843.57 493.17" stroke="hsl(35.69999999999999, 100%, 84.6%)" stroke-width="1.5"></path>
        <path d="M800.34 353.2L693.24 503.29" stroke="hsl(35.69999999999999, 100%, 84.6%)" stroke-width="1.5"></path>
        <path d="M843.57 493.17L843.57 493.17" stroke="hsl(35.69999999999999, 100%, 84.6%)" stroke-width="1.5"></path>
        <path d="M997.82 671.92L997.82 671.92" stroke="hsl(35.69999999999999, 100%, 84.6%)" stroke-width="1.5"></path>
        <path d="M997.82 671.92L1136.59 672.2" stroke="hsl(35.69999999999999, 100%, 84.6%)" stroke-width="1.5"></path>
        <path d="M997.82 671.92L997.38 503.24" stroke="hsl(35.69999999999999, 100%, 84.6%)" stroke-width="1.5"></path>
        <path d="M997.82 671.92L1088.71 514.41" stroke="hsl(35.69999999999999, 100%, 84.6%)" stroke-width="1.5"></path>
        <path d="M997.82 671.92L843.57 493.17" stroke="hsl(35.69999999999999, 100%, 84.6%)" stroke-width="1.5"></path>
        <path d="M1092.61 380.57L1092.61 380.57" stroke="hsl(35.69999999999999, 100%, 84.6%)" stroke-width="1.5"></path>
        <path d="M1092.61 380.57L1088.71 514.41" stroke="hsl(35.69999999999999, 100%, 84.6%)" stroke-width="1.5"></path>
        <path d="M1092.61 380.57L1298.66 342.26" stroke="hsl(35.69999999999999, 100%, 84.6%)" stroke-width="1.5"></path>
        <path d="M1092.61 380.57L1255.25 537.28" stroke="hsl(35.69999999999999, 100%, 84.6%)" stroke-width="1.5"></path>
        <path d="M1088.71 514.41L1088.71 514.41" stroke="hsl(35.69999999999999, 100%, 84.6%)" stroke-width="1.5"></path>
        <path d="M1088.71 514.41L1136.59 672.2" stroke="hsl(35.69999999999999, 100%, 84.6%)" stroke-width="1.5"></path>
        <path d="M1136.59 672.2L1136.59 672.2" stroke="hsl(35.69999999999999, 100%, 84.6%)" stroke-width="1.5"></path>
        <path d="M1136.59 672.2L1274.29 658.93" stroke="hsl(35.69999999999999, 100%, 84.6%)" stroke-width="1.5"></path>
        <path d="M1244.21 83.16L1244.21 83.16" stroke="hsl(35.69999999999999, 100%, 84.6%)" stroke-width="1.5"></path>
        <path d="M1244.21 83.16L1296.32 256.22" stroke="hsl(35.69999999999999, 100%, 84.6%)" stroke-width="1.5"></path>
        <path d="M1244.21 83.16L1434.09 84.11" stroke="hsl(35.69999999999999, 100%, 84.6%)" stroke-width="1.5"></path>
        <path d="M1244.21 83.16L1414.72 194.42" stroke="hsl(35.69999999999999, 100%, 84.6%)" stroke-width="1.5"></path>
        <path d="M1296.32 256.22L1296.32 256.22" stroke="hsl(35.69999999999999, 100%, 84.6%)" stroke-width="1.5"></path>
        <path d="M1296.32 256.22L1298.66 342.26" stroke="hsl(35.69999999999999, 100%, 84.6%)" stroke-width="1.5"></path>
        <path d="M1296.32 256.22L1414.72 194.42" stroke="hsl(35.69999999999999, 100%, 84.6%)" stroke-width="1.5"></path>
        <path d="M1298.66 342.26L1298.66 342.26" stroke="hsl(35.69999999999999, 100%, 84.6%)" stroke-width="1.5"></path>
        <path d="M1298.66 342.26L1414.72 194.42" stroke="hsl(35.69999999999999, 100%, 84.6%)" stroke-width="1.5"></path>
        <path d="M1255.25 537.28L1255.25 537.28" stroke="hsl(35.69999999999999, 100%, 84.6%)" stroke-width="1.5"></path>
        <path d="M1255.25 537.28L1274.29 658.93" stroke="hsl(35.69999999999999, 100%, 84.6%)" stroke-width="1.5"></path>
        <path d="M1255.25 537.28L1088.71 514.41" stroke="hsl(35.69999999999999, 100%, 84.6%)" stroke-width="1.5"></path>
        <path d="M1255.25 537.28L1425.52 533.43" stroke="hsl(35.69999999999999, 100%, 84.6%)" stroke-width="1.5"></path>
        <path d="M1255.25 537.28L1136.59 672.2" stroke="hsl(35.69999999999999, 100%, 84.6%)" stroke-width="1.5"></path>
        <path d="M1255.25 537.28L1298.66 342.26" stroke="hsl(35.69999999999999, 100%, 84.6%)" stroke-width="1.5"></path>
        <path d="M1274.29 658.93L1274.29 658.93" stroke="hsl(35.69999999999999, 100%, 84.6%)" stroke-width="1.5"></path>
        <path d="M1274.29 658.93L1447.05 640.32" stroke="hsl(35.69999999999999, 100%, 84.6%)" stroke-width="1.5"></path>
        <path d="M1274.29 658.93L1425.52 533.43" stroke="hsl(35.69999999999999, 100%, 84.6%)" stroke-width="1.5"></path>
        <path d="M1274.29 658.93L1088.71 514.41" stroke="hsl(35.69999999999999, 100%, 84.6%)" stroke-width="1.5"></path>
        <path d="M1450.81 -38.43L1450.81 -38.43" stroke="hsl(35.69999999999999, 100%, 84.6%)" stroke-width="1.5"></path>
        <path d="M1450.81 -38.43L1434.09 84.11" stroke="hsl(35.69999999999999, 100%, 84.6%)" stroke-width="1.5"></path>
        <path d="M1450.81 -38.43L1587.57 -86.11" stroke="hsl(35.69999999999999, 100%, 84.6%)" stroke-width="1.5"></path>
        <path d="M1450.81 -38.43L1591.04 49.66" stroke="hsl(35.69999999999999, 100%, 84.6%)" stroke-width="1.5"></path>
        <path d="M1450.81 -38.43L1414.72 194.42" stroke="hsl(35.69999999999999, 100%, 84.6%)" stroke-width="1.5"></path>
        <path d="M1434.09 84.11L1434.09 84.11" stroke="hsl(35.69999999999999, 100%, 84.6%)" stroke-width="1.5"></path>
        <path d="M1434.09 84.11L1414.72 194.42" stroke="hsl(35.69999999999999, 100%, 84.6%)" stroke-width="1.5"></path>
        <path d="M1434.09 84.11L1591.04 49.66" stroke="hsl(35.69999999999999, 100%, 84.6%)" stroke-width="1.5"></path>
        <path d="M1434.09 84.11L1296.32 256.22" stroke="hsl(35.69999999999999, 100%, 84.6%)" stroke-width="1.5"></path>
        <path d="M1414.72 194.42L1414.72 194.42" stroke="hsl(35.69999999999999, 100%, 84.6%)" stroke-width="1.5"></path>
        <path d="M1425.52 533.43L1425.52 533.43" stroke="hsl(35.69999999999999, 100%, 84.6%)" stroke-width="1.5"></path>
        <path d="M1425.52 533.43L1447.05 640.32" stroke="hsl(35.69999999999999, 100%, 84.6%)" stroke-width="1.5"></path>
        <path d="M1447.05 640.32L1447.05 640.32" stroke="hsl(35.69999999999999, 100%, 84.6%)" stroke-width="1.5"></path>
        <path d="M1447.05 640.32L1605.48 689.18" stroke="hsl(35.69999999999999, 100%, 84.6%)" stroke-width="1.5"></path>
        <path d="M1587.57 -86.11L1587.57 -86.11" stroke="hsl(35.69999999999999, 100%, 84.6%)" stroke-width="1.5"></path>
        <path d="M1587.57 -86.11L1591.04 49.66" stroke="hsl(35.69999999999999, 100%, 84.6%)" stroke-width="1.5"></path>
        <path d="M1591.04 49.66L1591.04 49.66" stroke="hsl(35.69999999999999, 100%, 84.6%)" stroke-width="1.5"></path>
        <path d="M1591.04 49.66L1414.72 194.42" stroke="hsl(35.69999999999999, 100%, 84.6%)" stroke-width="1.5"></path>
        <path d="M1591.04 49.66L1289.9 -52.17" stroke="hsl(35.69999999999999, 100%, 84.6%)" stroke-width="1.5"></path>
        <path d="M1591.04 49.66L1574.68 373.07" stroke="hsl(35.69999999999999, 100%, 84.6%)" stroke-width="1.5"></path>
        <path d="M1574.68 373.07L1574.68 373.07" stroke="hsl(35.69999999999999, 100%, 84.6%)" stroke-width="1.5"></path>
        <path d="M1574.68 373.07L1570.03 500.46" stroke="hsl(35.69999999999999, 100%, 84.6%)" stroke-width="1.5"></path>
        <path d="M1574.68 373.07L1425.52 533.43" stroke="hsl(35.69999999999999, 100%, 84.6%)" stroke-width="1.5"></path>
        <path d="M1574.68 373.07L1414.72 194.42" stroke="hsl(35.69999999999999, 100%, 84.6%)" stroke-width="1.5"></path>
        <path d="M1574.68 373.07L1298.66 342.26" stroke="hsl(35.69999999999999, 100%, 84.6%)" stroke-width="1.5"></path>
        <path d="M1570.03 500.46L1570.03 500.46" stroke="hsl(35.69999999999999, 100%, 84.6%)" stroke-width="1.5"></path>
        <path d="M1570.03 500.46L1425.52 533.43" stroke="hsl(35.69999999999999, 100%, 84.6%)" stroke-width="1.5"></path>
        <path d="M1570.03 500.46L1447.05 640.32" stroke="hsl(35.69999999999999, 100%, 84.6%)" stroke-width="1.5"></path>
        <path d="M1570.03 500.46L1427.69 377.33" stroke="hsl(35.69999999999999, 100%, 84.6%)" stroke-width="1.5"></path>
        <path d="M1605.48 689.18L1605.48 689.18" stroke="hsl(35.69999999999999, 100%, 84.6%)" stroke-width="1.5"></path>
        <path d="M1605.48 689.18L1570.03 500.46" stroke="hsl(35.69999999999999, 100%, 84.6%)" stroke-width="1.5"></path>
        <path d="M1605.48 689.18L1425.52 533.43" stroke="hsl(35.69999999999999, 100%, 84.6%)" stroke-width="1.5"></path>
        <circle r="25" cx="-45.98" cy="695.02" fill="url(#SvgjsRadialGradient1009)"></circle>
        <circle r="25" cx="255.19" cy="519.98" fill="url(#SvgjsRadialGradient1009)"></circle>
        <circle r="25" cx="224.83" cy="676.54" fill="url(#SvgjsRadialGradient1009)"></circle>
        <circle r="25" cx="398.37" cy="656.06" fill="url(#SvgjsRadialGradient1009)"></circle>
        <circle r="25" cx="541.43" cy="707.73" fill="url(#SvgjsRadialGradient1009)"></circle>
        <circle r="25" cx="805.04" cy="680.99" fill="url(#SvgjsRadialGradient1009)"></circle>
        <circle r="25" cx="987.82" cy="381.66" fill="url(#SvgjsRadialGradient1009)"></circle>
        <circle r="25" cx="997.38" cy="503.24" fill="url(#SvgjsRadialGradient1009)"></circle>
        <circle r="25" cx="1118.55" cy="232.1" fill="url(#SvgjsRadialGradient1009)"></circle>
        <circle r="25" cx="1289.9" cy="-52.17" fill="url(#SvgjsRadialGradient1009)"></circle>
        <circle r="25" cx="1427.69" cy="377.33" fill="url(#SvgjsRadialGradient1009)"></circle>
        <circle r="5" cx="-63.67" cy="562.35" fill="#ffdba6"></circle>
        <circle r="5" cx="65.35" cy="493.09" fill="#ffdba6"></circle>
        <circle r="5" cx="73.44" cy="693.08" fill="#ffdba6"></circle>
        <circle r="5" cx="346.3" cy="539.09" fill="#ffdba6"></circle>
        <circle r="5" cx="521.27" cy="517.99" fill="#ffdba6"></circle>
        <circle r="5" cx="693.24" cy="503.29" fill="#ffdba6"></circle>
        <circle r="5" cx="800.34" cy="353.2" fill="#ffdba6"></circle>
        <circle r="5" cx="843.57" cy="493.17" fill="#ffdba6"></circle>
        <circle r="5" cx="997.82" cy="671.92" fill="#ffdba6"></circle>
        <circle r="5" cx="1092.61" cy="380.57" fill="#ffdba6"></circle>
        <circle r="5" cx="1088.71" cy="514.41" fill="#ffdba6"></circle>
        <circle r="5" cx="1136.59" cy="672.2" fill="#ffdba6"></circle>
        <circle r="5" cx="1244.21" cy="83.16" fill="#ffdba6"></circle>
        <circle r="5" cx="1296.32" cy="256.22" fill="#ffdba6"></circle>
        <circle r="5" cx="1298.66" cy="342.26" fill="#ffdba6"></circle>
        <circle r="5" cx="1255.25" cy="537.28" fill="#ffdba6"></circle>
        <circle r="5" cx="1274.29" cy="658.93" fill="#ffdba6"></circle>
        <circle r="5" cx="1450.81" cy="-38.43" fill="#ffdba6"></circle>
        <circle r="5" cx="1434.09" cy="84.11" fill="#ffdba6"></circle>
        <circle r="5" cx="1414.72" cy="194.42" fill="#ffdba6"></circle>
        <circle r="5" cx="1425.52" cy="533.43" fill="#ffdba6"></circle>
        <circle r="5" cx="1447.05" cy="640.32" fill="#ffdba6"></circle>
        <circle r="5" cx="1587.57" cy="-86.11" fill="#ffdba6"></circle>
        <circle r="5" cx="1591.04" cy="49.66" fill="#ffdba6"></circle>
        <circle r="5" cx="1574.68" cy="373.07" fill="#ffdba6"></circle>
        <circle r="5" cx="1570.03" cy="500.46" fill="#ffdba6"></circle>
        <circle r="5" cx="1605.48" cy="689.18" fill="#ffdba6"></circle>
    </g>
    <defs>
        <mask id="SvgjsMask1008">
            <rect width="1440" height="560" fill="#ffffff"></rect>
        </mask>
        <radialGradient id="SvgjsRadialGradient1009">
            <stop stop-color="#ffffff" offset="0.1"></stop>
            <stop stop-color="rgba(255, 183, 77, 1)" offset="0.2"></stop>
            <stop stop-color="rgba(255, 183, 77, 0)" offset="0.6"></stop>
        </radialGradient>
    </defs>
</svg>